<svg width="178" height="178" viewBox="0 0 178 178" fill="none" xmlns="http://www.w3.org/2000/svg">
<g filter="url(#filter0_d)">
<path d="M83 162C127.735 162 164 125.735 164 81C164 36.2649 127.735 0 83 0C38.2649 0 2 36.2649 2 81C2 125.735 38.2649 162 83 162Z" fill="#3BCDED"/>
</g>
<path d="M163.997 83.2563L124.064 43.3236C120.195 38.3326 114.148 35.1107 107.359 35.1107C97.9986 35.1107 90.0448 41.2312 87.2772 49.6783L80.0052 42.4063L80.0435 42.3681L72.5731 34.8971L58.6997 48.7705L44.8265 34.8971L37.3559 42.3677L51.2293 56.2412L37.3559 70.1147L37.365 70.1235L37.3268 70.1618L52.6737 85.5088C43.9501 88.11 37.5698 96.2011 37.5698 105.759C37.5698 111.639 39.9861 116.963 43.8751 120.798L43.8197 120.853L84.9427 161.976C128.043 160.976 162.819 126.313 163.997 83.2563Z" fill="#14A4C3"/>
<path d="M107.33 77.3715C95.6787 77.3715 86.1995 67.8922 86.1995 56.2409C86.1995 44.5895 95.6787 35.1103 107.33 35.1103C118.981 35.1103 128.461 44.5895 128.461 56.2409C128.461 67.8922 118.981 77.3715 107.33 77.3715ZM107.33 45.6758C101.504 45.6758 96.7649 50.4152 96.7649 56.2409C96.7649 62.0666 101.504 66.806 107.33 66.806C113.156 66.806 117.895 62.0666 117.895 56.2409C117.895 50.4152 113.155 45.6758 107.33 45.6758Z" fill="white"/>
<path d="M107.33 35.1107V45.6758C113.156 45.6758 117.895 50.4152 117.895 56.2409C117.895 62.0666 113.156 66.806 107.33 66.806V77.3711C118.981 77.3711 128.461 67.8919 128.461 56.2406C128.461 44.5892 118.981 35.1107 107.33 35.1107Z" fill="#E0E0E2"/>
<path d="M80.0144 42.3674L72.5437 34.8968L58.6699 48.7705L44.7968 34.8968L37.3261 42.3674L51.1999 56.2412L37.3261 70.1144L44.7968 77.585L58.6699 63.7119L72.5437 77.585L80.0144 70.1144L66.1406 56.2412L80.0144 42.3674Z" fill="white"/>
<path d="M80.0144 42.3674L72.5437 34.8968L58.6699 48.7705V63.7119L72.5437 77.585L80.0144 70.1144L66.1406 56.2412L80.0144 42.3674Z" fill="#E0E0E2"/>
<path d="M58.6699 126.889C47.0186 126.889 37.5394 117.41 37.5394 105.759C37.5394 94.1074 47.0186 84.6282 58.6699 84.6282C70.3213 84.6282 79.8005 94.1074 79.8005 105.759C79.8005 117.41 70.3213 126.889 58.6699 126.889ZM58.6699 95.1937C52.8443 95.1937 48.1048 99.9331 48.1048 105.759C48.1048 111.584 52.8443 116.324 58.6699 116.324C64.4956 116.324 69.235 111.584 69.235 105.759C69.2354 99.9331 64.4956 95.1937 58.6699 95.1937Z" fill="white"/>
<path d="M58.6699 84.6285V95.1937C64.4956 95.1937 69.2351 99.9331 69.2351 105.759C69.2351 111.584 64.4956 116.324 58.6699 116.324V126.889C70.3213 126.889 79.8005 117.41 79.8005 105.758C79.8005 94.1071 70.3213 84.6285 58.6699 84.6285Z" fill="#E0E0E2"/>
<path d="M128.674 91.8856L121.203 84.415L107.33 98.2881L93.4563 84.415L85.9856 91.8856L99.8594 105.759L85.9856 119.633L93.4563 127.103L107.33 113.229L121.203 127.103L128.674 119.633L114.8 105.759L128.674 91.8856Z" fill="white"/>
<path d="M128.674 91.8856L121.203 84.415L107.33 98.2881V113.229L121.203 127.103L128.674 119.633L114.8 105.759L128.674 91.8856Z" fill="#E0E0E2"/>
<defs>
<filter id="filter0_d" x="0" y="0" width="178" height="178" filterUnits="userSpaceOnUse" color-interpolation-filters="sRGB">
<feFlood flood-opacity="0" result="BackgroundImageFix"/>
<feColorMatrix in="SourceAlpha" type="matrix" values="0 0 0 0 0 0 0 0 0 0 0 0 0 0 0 0 0 0 127 0"/>
<feOffset dx="6" dy="8"/>
<feGaussianBlur stdDeviation="4"/>
<feColorMatrix type="matrix" values="0 0 0 0 0.232292 0 0 0 0 0.803729 0 0 0 0 0.929167 0 0 0 0.5 0"/>
<feBlend mode="normal" in2="BackgroundImageFix" result="effect1_dropShadow"/>
<feBlend mode="normal" in="SourceGraphic" in2="effect1_dropShadow" result="shape"/>
</filter>
</defs>
</svg>
